<?xml version="1.0" standalone="no"?>
<!DOCTYPE svg PUBLIC "-//W3C//DTD SVG 20010904//EN"
 "http://www.w3.org/TR/2001/REC-SVG-20010904/DTD/svg10.dtd">
<svg version="1.0" xmlns="http://www.w3.org/2000/svg"
 width="170.000000pt" height="170.000000pt" viewBox="0 0 170.000000 170.000000"
 preserveAspectRatio="xMidYMid meet">

<g transform="translate(0.000000,170.000000) scale(0.100000,-0.100000)"
fill="#000000" stroke="none">
<path d="M698 1684 c-79 -14 -174 -46 -247 -83 l-42 -22 26 -42 c14 -23 29
-48 33 -55 6 -9 22 -5 64 18 64 35 198 83 207 74 3 -3 15 -47 26 -97 l20 -92
85 -6 c107 -7 178 -28 259 -76 158 -94 261 -272 261 -454 l0 -77 98 -24 c91
-23 97 -26 95 -49 -4 -31 -50 -144 -80 -191 l-22 -37 49 -30 49 -31 36 74
c126 263 106 584 -54 826 -189 288 -527 435 -863 374z"/>
<path d="M85 1217 c-63 -137 -80 -214 -79 -372 1 -122 4 -151 28 -230 15 -49
45 -123 67 -163 39 -73 39 -74 39 -188 l0 -114 116 0 c101 0 120 -3 145 -21
44 -31 150 -76 236 -101 108 -31 313 -31 425 0 107 29 232 88 222 104 -4 7
-18 29 -30 50 l-23 36 -63 -33 c-86 -45 -187 -80 -197 -69 -5 5 -17 46 -28 92
l-19 82 -94 4 c-104 4 -192 28 -263 73 -35 22 -51 26 -109 24 l-68 -2 0 71 c0
57 -5 80 -24 113 -41 71 -58 149 -58 266 l0 107 -94 24 c-110 27 -106 14 -38
157 24 51 44 96 43 100 0 5 -23 21 -50 36 l-49 29 -35 -75z"/>
<path d="M972 1144 c-55 -38 -68 -123 -27 -173 54 -63 146 -60 192 8 37 55 24
128 -29 165 -29 21 -107 21 -136 0z"/>
<path d="M585 756 c-52 -23 -70 -52 -70 -113 0 -49 3 -58 33 -84 26 -23 41
-29 80 -29 54 0 85 18 107 60 32 62 4 139 -60 166 -42 17 -51 17 -90 0z"/>
</g>
</svg>